<?xml version="1.0" encoding="utf-8"?>
<!-- Generator: Adobe Illustrator 21.1.0, SVG Export Plug-In . SVG Version: 6.00 Build 0)  -->
<svg version="1.1" id="Layer_1" xmlns="http://www.w3.org/2000/svg" xmlns:xlink="http://www.w3.org/1999/xlink" x="0px" y="0px"
	 viewBox="0 0 480 300" style="enable-background:new 0 0 480 300;" xml:space="preserve">
<style type="text/css">
	.st0{fill:#FFFFFF;}
	.st1{fill:#5D873B;}
	.st2{fill:#7A69AD;}
	.st3{fill:#DF3A6E;}
	.st4{fill:#55BCEB;}
	.st5{fill:#C42033;}
	.st6{fill:#F69F1D;}
	.st7{fill:#025387;}
	.st8{fill:#005487;}
</style>
<g>
	<path class="st0" d="M451.6,94V47.4H336.4V3h-92.8v30.9h-38.1V16.3H102.3v40.9H27.7V94H7.5v115.6h94.8v23.8H133v26.6h110.6V297
		h92.8v-47.6h115.2v-39.8H472V94H451.6z M458.3,195.9h-6.7h-13.7v13.7v26.1H336.4h-13.7v13.7v33.9h-65.4v-23.4v-13.7h-13.7h-96.9
		v-12.9v-13.7H133h-17v-10.1v-13.7h-13.7H21.2v-88.2h6.5h13.7V94V70.9h60.9h13.7V57.2V30h75.9v58.9h1.3h12.3h1.3V47.6h36.7h13.7
		V33.9V16.7h65.4v30.7V61h13.7h101.6v33v13.7h13.7h6.7V195.9z"/>
	<g>
		<rect x="41.4" y="70.9" class="st1" width="74.6" height="36.8"/>
		<rect x="206.8" y="47.6" class="st2" width="50.4" height="41.3"/>
		<rect x="115.9" y="195.9" class="st3" width="30.7" height="23.8"/>
		<polygon class="st3" points="146.7,107.7 146.7,88.9 191.8,88.9 191.8,30 115.9,30 115.9,70.9 115.9,107.7 		"/>
		<polygon class="st4" points="146.7,195.9 146.7,219.7 146.7,246.2 257.2,246.2 257.2,195.9 		"/>
		<polygon class="st4" points="146.7,107.7 257.2,107.7 257.2,88.9 206.8,88.9 191.8,88.9 146.7,88.9 		"/>
		<rect x="322.7" y="61" class="st5" width="115.2" height="46.6"/>
		<rect x="322.7" y="195.9" class="st5" width="115.2" height="39.8"/>
		<polygon class="st6" points="257.2,107.7 322.7,107.7 322.7,61 322.7,16.7 257.2,16.7 257.2,47.6 257.2,88.9 		"/>
		<polygon class="st6" points="257.2,195.9 257.2,246.2 257.2,283.3 322.7,283.3 322.7,235.7 322.7,195.9 		"/>
		<path class="st7" d="M322.7,107.7h-65.4H146.7h-30.7H41.4H21.2v88.2h94.8h30.7h110.6h65.4h115.2h20.4v-88.2h-20.4H322.7z
			 M113,178.1h-7.2v-44h-0.2l-18.1,44h-4.8l-18.1-44h-0.1v44h-7.3v-53.5H68l17,40.5h0.3l16.9-40.5H113V178.1z M156.4,162.7h-28.7
			c0,6.3,5.8,10.4,12.1,10.4c4.2,0,7.2-2.1,9.8-5.4l5.1,3.9c-3.8,4.9-9,7.3-15.9,7.3c-11.3,0-18.4-8.2-18.4-18.8
			c0-10.7,7.8-18.8,18.5-18.8c12.6,0,17.5,9.7,17.5,18.9V162.7z M198.6,178.1h-6.8h-0.2c0,0-7.6,0-12.5,0
			c-11.1,0-18.2-7.3-18.2-17.9c0-10.7,7.2-18.8,18.2-18.8c5.1,0,10.1,2.3,12.5,6h0.2v-22.8h6.8V178.1z M214.3,178.1h-6.8v-35.8h6.8
			V178.1z M214.3,136.5h-6.8v-6.8h6.8V136.5z M252.6,171.6c0,2.5,0,6.5,0,6.5h-5.7h-0.4c0,0-7.1,0-12.5,0c-6.6,0-12.4-2.9-12.4-9.8
			c0-9.2,8.8-12.4,19.7-12.4h5v-1.5c0-3.7-2.7-7.6-8.5-7.6c-5.2,0-7.7,2.2-10.2,4.1l-4.1-4.2c3.8-3.6,9.2-5.3,14.2-5.3
			c10.6,0,15,5.7,15,11.9V171.6z M317.6,178.1h-7.3v-44h-0.1l-18.1,44h-4.8l-18.1-44H269v44h-7.3v-53.5h10.8l17,40.5h0.3l16.9-40.5
			h10.8V178.1z M354,171.6c0,2.5,0,6.5,0,6.5h-5.7h-0.4c0,0-7.1,0-12.6,0c-6.6,0-12.4-2.9-12.4-9.8c0-9.2,8.8-12.4,19.7-12.4h5v-1.5
			c0-3.7-2.7-7.6-8.5-7.6c-5.2,0-7.7,2.2-10.2,4.1l-4.1-4.2c3.8-3.6,9.2-5.3,14.2-5.3c10.6,0,15,5.7,15,11.9V171.6z M383.9,177.8
			c-1.6,0.9-4.8,1.2-6.1,1.2c-10.5,0-10.7-6.4-10.7-12.2v-18.7h-7.9v-5.9h7.9v-10h6.8v10h9.7v5.9H374v16.2c0,4,0,8.2,5.1,8.2
			c1.6,0,3.5-0.2,4.8-1.1V177.8z M422.3,178.1h-6.8v-21.2c0-6.7-3.9-9.2-8.2-9.2c-5.7,0-10,3.6-10,11.9v18.5h-6.8v-53.5h6.8
			l0.2,16.8c0,0,6.3,0,11.8,0c7,0,13,4.2,13,13.7V178.1z"/>
		<g>
			<path class="st8" d="M138.8,146.8c-6.7,0-11.1,5.7-11.1,10.4h21.5C149,151.3,145.7,146.8,138.8,146.8z"/>
			<path class="st7" d="M153.3,161.2h-29.5v-4c0-7,6.1-14.4,15.1-14.4c8.5,0,14.1,5.6,14.3,14.3L153.3,161.2z M133.4,153.3h10.8
				c-1.5-2.5-4.2-2.5-5.4-2.5C136.5,150.8,134.6,151.8,133.4,153.3z"/>
		</g>
		<g>
			<path class="st8" d="M228.3,167.7c0,4.1,3,5.8,7.7,5.8c7.6,0,10.2-5.6,10.2-10.4v-2.3h-3.6C236.2,160.9,228.3,162,228.3,167.7z"
				/>
			<path class="st7" d="M236,177.5c-8.6,0-11.7-5.1-11.7-9.8c0-4.1,2.4-10.9,18.3-10.9h7.6v6.2C250.2,170.3,245.8,177.5,236,177.5z
				 M242.1,164.8c-5.8,0.1-9.8,1.2-9.8,2.9c0,0.7,0,1.8,3.7,1.8C240.3,169.6,241.7,167.1,242.1,164.8z"/>
		</g>
		<g>
			<path class="st8" d="M180,147.7c-7.3,0-11.8,5.2-11.8,12.5c0,7.3,4.5,12.5,11.8,12.5c7.2,0,11.8-5.2,11.8-12.5
				C191.8,152.9,187.3,147.7,180,147.7z"/>
			<path class="st7" d="M180,176.6c-9.3,0-15.8-6.8-15.8-16.4c0-9.7,6.5-16.5,15.8-16.5c9.3,0,15.8,6.8,15.8,16.5
				C195.8,169.9,189.3,176.6,180,176.6z M180,151.7c-5.8,0-7.8,4.4-7.8,8.5c0,4.1,2.1,8.5,7.8,8.5c5.8,0,7.8-4.4,7.8-8.5
				C187.8,156.1,185.8,151.7,180,151.7z"/>
		</g>
		<g>
			<path class="st8" d="M329.8,167.7c0,4.1,3,5.8,7.7,5.8c7.6,0,10.2-5.6,10.2-10.4v-2.3h-3.6C337.6,160.9,329.8,162,329.8,167.7z"
				/>
			<path class="st7" d="M337.5,177.5c-8.6,0-11.7-5.1-11.7-9.8c0-4.1,2.4-10.9,18.3-10.9h7.6v6.2
				C351.7,170.3,347.3,177.5,337.5,177.5z M343.6,164.8c-5.8,0.1-9.8,1.2-9.8,2.9c0,0.7,0,1.8,3.7,1.8
				C341.7,169.6,343.1,167.1,343.6,164.8z"/>
		</g>
		<polygon class="st0" points="85.3,165.1 85,165.1 68,124.6 57.2,124.6 57.2,178.1 64.5,178.1 64.5,134.1 64.6,134.1 82.7,178.1 
			87.5,178.1 105.6,134.1 105.7,134.1 105.7,178.1 113,178.1 113,124.6 102.2,124.6 		"/>
		<path class="st0" d="M139,141.4c-10.7,0-18.5,8.1-18.5,18.8c0,10.7,7.1,18.8,18.4,18.8c6.9,0,12.1-2.4,15.9-7.3l-5.1-3.9
			c-2.6,3.2-5.7,5.4-9.8,5.4c-6.3,0-12.1-4.2-12.1-10.4h28.7v-2.4C156.4,151,151.6,141.4,139,141.4z M127.7,157.2
			c0-4.8,4.4-10.4,11.1-10.4c6.9,0,10.2,4.5,10.4,10.4H127.7z"/>
		<path class="st0" d="M191.8,147.4h-0.2c-2.4-3.7-7.3-6-12.5-6c-11,0-18.2,8.1-18.2,18.8c0,10.6,7.1,17.9,18.2,17.9
			c4.8,0,12.5,0,12.5,0h0.2h6.8v-53.5h-6.8V147.4z M180,172.6c-7.3,0-11.8-5.2-11.8-12.5c0-7.3,4.5-12.5,11.8-12.5
			c7.2,0,11.8,5.2,11.8,12.5C191.8,167.4,187.3,172.6,180,172.6z"/>
		<rect x="207.5" y="142.3" class="st0" width="6.8" height="35.8"/>
		<path class="st0" d="M237.6,141.4c-5,0-10.4,1.7-14.2,5.3l4.1,4.2c2.5-1.9,5-4.1,10.2-4.1c5.8,0,8.5,3.9,8.5,7.6v1.5h-5
			c-10.9,0-19.7,3.2-19.7,12.4c0,6.9,5.7,9.8,12.4,9.8c5.4,0,12.5,0,12.5,0h0.4h5.7c0,0,0-4,0-6.5v-18.3
			C252.6,147.1,248.2,141.4,237.6,141.4z M246.2,163.1c0,4.8-2.6,10.4-10.2,10.4c-4.7,0-7.7-1.7-7.7-5.8c0-5.7,7.9-6.9,14.3-6.9h3.6
			V163.1z"/>
		<path class="st0" d="M339.1,141.4c-5,0-10.4,1.7-14.2,5.3l4.1,4.2c2.5-1.9,5-4.1,10.2-4.1c5.8,0,8.5,3.9,8.5,7.6v1.5h-5
			c-10.9,0-19.7,3.2-19.7,12.4c0,6.9,5.7,9.8,12.4,9.8c5.4,0,12.6,0,12.6,0h0.4h5.7c0,0,0-4,0-6.5v-18.3
			C354,147.1,349.7,141.4,339.1,141.4z M347.7,163.1c0,4.8-2.6,10.4-10.2,10.4c-4.7,0-7.7-1.7-7.7-5.8c0-5.7,7.9-6.9,14.3-6.9h3.6
			V163.1z"/>
		<polygon class="st0" points="289.9,165.1 289.6,165.1 272.6,124.6 261.8,124.6 261.8,178.1 269,178.1 269,134.1 269.2,134.1 
			287.3,178.1 292.1,178.1 310.2,134.1 310.3,134.1 310.3,178.1 317.6,178.1 317.6,124.6 306.8,124.6 		"/>
		<path class="st0" d="M374,164.4v-16.2h9.7v-5.9H374v-10h-6.8v10h-7.9v5.9h7.9v18.7c0,5.7,0.2,12.2,10.7,12.2
			c1.4,0,4.5-0.3,6.1-1.2v-6.2c-1.4,0.8-3.3,1.1-4.8,1.1C374,172.6,374,168.4,374,164.4z"/>
		<path class="st0" d="M409.3,141.4c-5.5,0-11.8,0-11.8,0l-0.2-16.8h-6.8v53.5h6.8v-18.5c0-8.3,4.3-11.9,10-11.9
			c4.3,0,8.2,2.5,8.2,9.2v21.2h6.8V155C422.3,145.5,416.3,141.4,409.3,141.4z"/>
		<rect x="207.5" y="129.7" class="st0" width="6.8" height="6.8"/>
	</g>
</g>
</svg>
